<svg id="svg" version="1.1" xmlns="http://www.w3.org/2000/svg" xmlns:xlink="http://www.w3.org/1999/xlink" width="400" height="400" viewBox="0, 0, 400,400"><g id="svgg"><path id="path0" d="M0.000 200.000 L 0.000 400.000 200.000 400.000 L 400.000 400.000 400.000 200.000 L 400.000 0.000 200.000 0.000 L 0.000 0.000 0.000 200.000 M343.018 10.441 C 346.822 11.864,349.461 15.016,350.233 19.057 C 350.581 20.880,352.609 22.575,355.614 23.555 C 359.729 24.898,363.598 29.224,363.600 32.486 C 363.600 33.701,365.962 35.959,367.730 36.435 C 375.297 38.473,377.344 42.318,377.132 54.098 C 376.942 64.605,375.119 68.065,368.831 69.852 C 365.886 70.689,363.913 72.569,363.245 75.176 C 362.173 79.357,359.497 82.037,355.200 83.231 C 354.193 83.511,352.739 84.355,351.900 85.147 L 350.400 86.562 350.400 93.403 L 350.400 100.243 351.700 101.473 C 352.446 102.179,354.113 103.066,355.614 103.555 C 362.037 105.650,363.599 108.715,363.600 119.219 L 363.600 126.638 365.100 128.076 C 366.072 129.008,367.385 129.738,368.831 130.148 C 372.137 131.088,374.425 133.021,375.829 136.064 L 377.000 138.600 377.119 152.800 L 377.238 167.000 378.462 168.264 C 379.136 168.959,380.252 169.635,380.943 169.767 C 384.984 170.539,388.136 173.178,389.559 176.982 C 390.867 180.477,390.867 219.523,389.559 223.018 C 388.141 226.807,385.863 228.812,381.600 230.022 C 380.610 230.303,379.215 231.078,378.500 231.745 L 377.200 232.957 377.200 253.201 C 377.200 275.799,377.140 276.349,374.319 279.771 C 373.087 281.266,368.940 283.599,367.514 283.600 C 366.698 283.600,364.000 285.876,364.000 286.563 C 364.000 287.563,366.646 289.526,368.831 290.148 C 375.150 291.945,376.944 295.381,377.130 306.049 L 377.261 313.497 378.730 314.876 C 379.609 315.700,381.094 316.523,382.424 316.924 C 385.201 317.760,387.698 319.857,389.116 322.545 L 390.200 324.600 390.310 352.657 C 390.436 384.629,390.540 383.542,387.041 387.041 C 383.681 390.400,383.682 390.400,360.000 390.400 C 336.318 390.400,336.319 390.400,332.959 387.041 C 327.042 381.123,329.819 372.414,338.400 369.978 C 339.390 369.697,340.785 368.922,341.500 368.255 L 342.800 367.043 342.800 353.368 L 342.800 339.693 341.199 338.247 C 340.318 337.451,339.283 336.800,338.899 336.800 C 335.594 336.798,331.265 332.816,330.119 328.724 C 329.307 325.822,327.451 324.002,324.356 323.070 C 321.088 322.086,319.091 320.473,317.744 317.729 L 316.600 315.400 316.490 294.371 L 316.380 273.343 314.865 271.863 L 313.350 270.384 311.897 271.837 C 311.098 272.636,310.322 273.854,310.173 274.545 C 308.695 281.383,304.721 283.600,293.943 283.600 L 286.828 283.600 285.419 284.837 C 284.543 285.607,283.843 286.698,283.565 287.730 C 282.304 292.411,279.900 295.047,275.614 296.445 C 273.055 297.279,270.400 299.224,270.400 300.263 C 270.400 304.357,265.685 309.327,260.943 310.233 C 260.252 310.365,259.131 311.046,258.452 311.746 L 257.218 313.020 257.109 347.210 L 257.000 381.400 255.829 383.936 C 254.460 386.902,252.183 388.877,249.066 389.803 C 246.066 390.694,193.934 390.694,190.934 389.803 C 180.675 386.756,180.839 373.083,191.169 370.148 C 194.114 369.311,196.087 367.431,196.755 364.824 C 197.827 360.643,200.503 357.963,204.800 356.769 C 205.807 356.489,207.261 355.645,208.100 354.853 L 209.600 353.438 209.600 340.000 L 209.600 326.562 208.100 325.154 C 207.186 324.296,205.724 323.482,204.356 323.070 C 197.994 321.155,196.646 318.453,196.477 307.273 C 196.296 295.313,198.326 291.368,205.455 289.827 C 207.070 289.478,209.478 287.070,209.827 285.455 C 210.680 281.510,213.819 278.054,217.576 276.924 C 218.925 276.518,220.391 275.700,221.300 274.846 L 222.800 273.438 222.800 259.996 C 222.800 244.984,223.023 243.453,225.681 240.229 C 226.913 238.734,231.060 236.401,232.486 236.400 C 233.701 236.400,235.959 234.038,236.435 232.270 C 237.696 227.589,240.100 224.953,244.386 223.555 C 246.945 222.721,249.600 220.776,249.600 219.737 C 249.600 215.763,253.584 211.345,258.400 209.978 C 259.390 209.697,260.785 208.922,261.500 208.255 L 262.800 207.043 262.800 200.041 L 262.800 193.038 261.522 191.719 L 260.243 190.400 239.737 190.400 C 219.876 190.400,219.159 190.374,216.982 189.559 C 213.178 188.136,210.539 184.984,209.767 180.943 C 209.419 179.120,207.391 177.425,204.386 176.445 C 200.271 175.102,196.402 170.776,196.400 167.514 C 196.400 166.299,194.038 164.041,192.270 163.565 C 187.589 162.304,184.953 159.900,183.555 155.614 C 182.721 153.055,180.776 150.400,179.737 150.400 C 175.763 150.400,171.345 146.416,169.978 141.600 C 169.697 140.610,168.922 139.215,168.255 138.500 L 167.043 137.200 153.291 137.200 L 139.538 137.200 138.402 138.337 C 137.776 138.962,137.052 140.264,136.792 141.230 C 135.556 145.820,133.015 148.630,129.031 149.813 C 125.465 150.872,99.917 150.655,96.915 149.541 C 89.572 146.815,87.556 138.363,92.959 132.959 C 96.142 129.777,97.200 129.600,113.055 129.600 L 126.880 129.600 128.301 128.179 L 129.722 126.758 128.180 125.179 L 126.638 123.600 72.790 123.600 C 13.030 123.600,16.952 123.777,13.631 120.933 C 7.753 115.903,8.982 107.440,16.064 104.171 L 18.600 103.000 106.025 102.896 L 193.450 102.793 194.803 101.396 L 196.157 100.000 194.830 98.631 L 193.502 97.261 186.051 97.131 C 178.789 97.003,178.536 96.970,176.064 95.829 C 168.982 92.560,167.753 84.097,173.631 79.067 C 176.883 76.283,175.127 76.400,213.571 76.400 L 248.200 76.401 250.629 77.550 C 259.918 81.944,258.382 94.004,248.184 96.751 C 247.270 96.997,245.981 97.794,245.207 98.592 L 243.843 100.000 245.200 101.400 L 246.557 102.800 259.962 102.800 L 273.366 102.800 274.883 101.319 L 276.400 99.838 276.400 86.600 L 276.400 73.362 274.900 71.924 C 273.928 70.992,272.615 70.262,271.169 69.852 C 267.863 68.912,265.575 66.979,264.171 63.936 L 263.000 61.400 263.000 46.800 C 263.000 27.722,263.873 25.388,271.813 23.250 C 274.017 22.657,276.086 20.361,276.924 17.576 C 277.998 14.006,280.962 11.146,284.800 9.974 C 287.530 9.141,340.682 9.567,343.018 10.441 M218.393 98.608 L 217.028 100.015 218.514 101.501 L 220.000 102.987 221.486 101.501 L 222.972 100.015 221.607 98.608 C 220.857 97.833,220.134 97.200,220.000 97.200 C 219.866 97.200,219.143 97.833,218.393 98.608 M231.600 138.600 L 230.243 140.000 231.600 141.400 L 232.957 142.800 240.000 142.800 L 247.043 142.800 248.400 141.400 L 249.757 140.000 248.400 138.600 L 247.043 137.200 240.000 137.200 L 232.957 137.200 231.600 138.600 " stroke="none" fill="none" fill-rule="evenodd"></path><path id="path1" d="M285.800 15.138 C 284.076 16.193,281.788 18.855,280.615 21.171 C 279.117 24.127,277.601 25.646,274.388 27.407 C 272.748 28.306,270.752 29.826,269.754 30.936 L 268.000 32.887 268.000 46.588 L 268.000 60.290 269.204 61.806 C 270.617 63.583,272.304 64.905,274.800 66.190 C 280.850 69.306,281.201 70.430,281.196 86.684 L 281.192 100.200 280.020 102.245 C 276.885 107.710,275.868 108.001,259.916 107.996 L 246.600 107.992 244.555 106.820 C 242.304 105.529,240.780 103.914,239.565 101.531 L 238.767 99.968 239.862 97.956 C 241.149 95.593,242.876 93.980,245.600 92.600 C 247.829 91.470,250.015 89.665,251.247 87.934 L 252.081 86.762 251.033 85.178 C 250.456 84.307,249.241 83.055,248.332 82.397 L 246.680 81.200 213.172 81.200 L 179.664 81.200 177.452 83.222 C 174.098 86.287,174.227 87.643,178.171 90.777 L 179.710 92.000 186.555 92.004 C 195.293 92.009,197.713 93.134,200.427 98.453 C 201.658 100.865,199.495 104.497,195.445 106.820 L 193.400 107.992 106.555 107.996 L 19.710 108.000 18.171 109.223 C 14.227 112.357,14.098 113.713,17.452 116.778 L 19.664 118.800 73.248 118.800 C 125.967 118.800,126.857 118.813,128.393 119.597 C 131.347 121.104,134.253 124.926,134.971 128.250 C 135.725 131.739,136.967 132.000,152.839 132.000 C 169.554 132.000,170.758 132.407,174.210 139.221 C 175.536 141.836,178.164 144.464,180.779 145.790 C 183.661 147.250,185.801 149.314,187.249 152.031 C 189.060 155.429,190.815 157.283,193.651 158.795 C 197.117 160.642,199.167 162.655,201.015 166.027 C 202.768 169.225,204.506 170.905,207.969 172.751 C 210.582 174.144,212.734 176.317,214.040 178.882 C 215.298 181.351,216.663 183.030,218.527 184.401 L 220.158 185.600 240.299 185.600 C 262.598 185.600,261.310 185.456,264.455 188.297 C 267.523 191.069,268.000 192.644,268.000 200.000 C 268.000 208.613,266.673 211.224,260.779 214.210 C 258.164 215.536,255.536 218.164,254.210 220.779 C 252.750 223.661,250.686 225.801,247.969 227.249 C 244.576 229.057,242.717 230.814,241.216 233.630 C 239.540 236.775,237.576 238.957,235.233 240.278 C 231.532 242.366,230.368 243.251,229.197 244.868 L 228.000 246.520 227.996 259.960 L 227.992 273.400 226.820 275.445 C 225.466 277.805,223.898 279.233,221.107 280.647 C 218.269 282.085,215.707 284.611,214.340 287.318 C 212.828 290.314,210.305 292.833,207.291 294.354 C 205.897 295.058,204.150 296.406,203.058 297.620 L 201.200 299.687 201.200 306.522 C 201.200 315.109,201.800 316.261,207.875 319.337 C 214.047 322.463,214.400 323.581,214.400 340.000 C 214.400 356.562,214.083 357.528,207.562 360.819 C 204.533 362.348,202.348 364.533,200.819 367.562 C 199.416 370.343,197.331 372.506,194.800 373.810 C 191.750 375.381,188.000 378.794,188.000 380.000 C 188.000 380.566,190.415 383.318,191.896 384.439 L 193.400 385.578 220.000 385.578 L 246.600 385.578 248.104 384.439 C 248.931 383.813,250.146 382.623,250.804 381.795 L 252.000 380.290 252.000 346.932 L 252.000 313.573 252.969 311.661 C 254.133 309.364,256.437 307.200,259.221 305.790 C 261.836 304.464,264.464 301.836,265.790 299.221 C 267.250 296.339,269.314 294.199,272.031 292.751 C 275.416 290.947,277.282 289.187,278.769 286.398 C 280.408 283.323,282.089 281.384,284.378 279.930 L 286.157 278.800 293.235 278.800 L 300.313 278.800 302.380 276.942 C 303.604 275.841,304.942 274.103,305.661 272.679 C 309.187 265.694,313.536 264.203,317.966 268.460 C 321.349 271.710,321.200 270.567,321.200 293.263 L 321.200 313.357 322.246 314.866 C 323.492 316.664,325.067 317.915,327.875 319.337 C 330.495 320.664,332.495 322.715,334.094 325.715 C 335.667 328.667,338.159 331.145,341.000 332.582 C 347.533 335.888,348.000 337.272,348.000 353.340 C 348.000 369.496,347.555 370.777,340.750 374.225 C 338.514 375.358,334.800 378.871,334.800 379.853 C 334.800 380.749,336.679 383.042,338.527 384.401 L 340.158 385.600 359.957 385.600 L 379.757 385.600 381.328 384.511 C 382.192 383.913,383.506 382.627,384.249 381.654 L 385.600 379.885 385.600 353.523 C 385.600 331.504,385.506 326.979,385.031 326.059 C 384.211 324.475,381.192 321.812,378.893 320.647 C 373.098 317.711,372.009 315.482,372.004 306.555 L 372.000 299.710 370.796 298.194 C 369.379 296.412,367.692 295.092,365.182 293.803 C 362.860 292.611,360.347 290.100,359.421 288.047 C 358.284 285.525,361.151 281.458,365.682 279.165 C 368.312 277.834,369.563 276.844,370.836 275.087 L 372.000 273.480 372.000 253.527 L 372.000 233.573 372.969 231.661 C 374.084 229.460,376.408 227.220,378.882 225.960 C 381.351 224.702,383.030 223.337,384.401 221.473 L 385.600 219.842 385.600 200.000 L 385.600 180.158 384.401 178.527 C 383.030 176.663,381.351 175.298,378.882 174.040 C 372.462 170.770,372.000 169.363,372.000 153.068 L 372.000 139.710 370.796 138.194 C 369.383 136.417,367.696 135.095,365.200 133.810 C 359.905 131.083,358.800 128.712,358.800 120.076 L 358.800 113.320 357.623 111.695 C 356.407 110.017,354.203 108.320,351.373 106.884 C 349.601 105.985,347.209 103.551,346.223 101.644 C 345.220 99.705,345.324 86.907,346.359 84.884 C 347.497 82.660,349.770 80.528,352.438 79.181 C 355.467 77.652,357.652 75.467,359.181 72.438 C 360.584 69.657,362.669 67.494,365.200 66.190 C 367.696 64.905,369.383 63.583,370.796 61.806 L 372.000 60.290 372.000 53.405 L 372.000 46.520 370.803 44.868 C 369.632 43.251,368.468 42.366,364.767 40.278 C 362.424 38.957,360.460 36.775,358.784 33.630 C 357.283 30.814,355.424 29.057,352.031 27.249 C 349.418 25.856,347.266 23.683,345.960 21.118 C 344.702 18.649,343.337 16.970,341.473 15.599 L 339.842 14.400 313.421 14.401 C 288.487 14.403,286.932 14.444,285.800 15.138 M222.971 93.759 C 225.266 95.391,227.600 98.537,227.600 100.000 C 227.600 102.403,222.403 107.600,220.000 107.600 C 217.597 107.600,212.400 102.403,212.400 100.000 C 212.400 97.597,217.597 92.400,220.000 92.400 C 220.583 92.400,221.919 93.012,222.971 93.759 M248.339 132.969 C 252.283 134.968,254.991 139.072,253.889 141.382 C 251.441 146.515,248.325 148.000,240.000 148.000 C 231.675 148.000,228.559 146.515,226.111 141.382 C 225.023 139.101,227.681 135.017,231.573 132.989 C 234.379 131.527,245.467 131.514,248.339 132.969 M98.548 135.582 C 93.985 138.943,93.980 141.057,98.527 144.401 L 100.158 145.600 113.379 145.589 L 126.600 145.578 128.104 144.439 C 131.852 141.601,132.684 139.295,130.859 136.800 C 129.299 134.666,128.887 134.609,114.000 134.482 L 100.200 134.365 98.548 135.582 " stroke="none" fill="#040404" fill-rule="evenodd"></path><path id="path2" d="" stroke="none" fill="#bc10080" fill-rule="evenodd"></path><path id="path3" d="" stroke="none" fill="#bc10080" fill-rule="evenodd"></path><path id="path4" d="" stroke="none" fill="#bc10080" fill-rule="evenodd"></path></g></svg>