<?xml version="1.0" standalone="no"?>
<!DOCTYPE svg PUBLIC "-//W3C//DTD SVG 20010904//EN"
 "http://www.w3.org/TR/2001/REC-SVG-20010904/DTD/svg10.dtd">
<svg version="1.0" xmlns="http://www.w3.org/2000/svg"
 width="640.000000pt" height="1280.000000pt" viewBox="0 0 640.000000 1280.000000"
 preserveAspectRatio="xMidYMid meet">
<metadata>
Created by potrace 1.15, written by Peter Selinger 2001-2017
</metadata>
<g transform="translate(0.000000,1280.000000) scale(0.100000,-0.100000)"
fill="#000000" stroke="none">
<path d="M945 12787 c-112 -38 -198 -116 -234 -213 l-21 -55 0 -6119 0 -6119
21 -56 c29 -77 102 -154 181 -191 53 -24 76 -29 143 -29 67 0 90 5 140 28 78
36 137 95 172 171 l28 61 3 688 3 687 1814 0 1815 0 0 -658 c0 -730 0 -730 65
-829 77 -117 221 -175 356 -143 116 27 184 81 236 187 l38 77 0 6126 0 6126
-38 77 c-52 106 -120 160 -236 187 -135 32 -279 -26 -356 -143 -64 -98 -65
-106 -65 -764 l0 -593 -1815 0 -1814 0 -3 623 -3 622 -28 61 c-54 117 -167
194 -296 200 -38 2 -83 -2 -106 -9z m4065 -2617 l0 -730 -1815 0 -1815 0 0
730 0 730 1815 0 1815 0 0 -730z m0 -1850 l0 -730 -1815 0 -1815 0 0 730 0
730 1815 0 1815 0 0 -730z m0 -1850 l0 -730 -1815 0 -1815 0 0 730 0 730 1815
0 1815 0 0 -730z m0 -1860 l0 -730 -1815 0 -1815 0 0 730 0 730 1815 0 1815 0
0 -730z m0 -1850 l0 -730 -1815 0 -1815 0 0 730 0 730 1815 0 1815 0 0 -730z"/>
</g>
</svg>
