<svg id="svg" version="1.1" xmlns="http://www.w3.org/2000/svg" xmlns:xlink="http://www.w3.org/1999/xlink" width="400" height="400" viewBox="0, 0, 400,400"><g id="svgg"><path id="path0" d="M0.000 200.000 L 0.000 400.000 200.000 400.000 L 400.000 400.000 400.000 200.000 L 400.000 0.000 200.000 0.000 L 0.000 0.000 0.000 200.000 M303.018 10.441 C 306.822 11.864,309.461 15.016,310.233 19.057 C 310.581 20.880,312.609 22.575,315.614 23.555 C 319.729 24.898,323.598 29.224,323.600 32.486 C 323.600 33.701,325.962 35.959,327.730 36.435 C 335.297 38.473,337.344 42.318,337.132 54.098 C 336.942 64.605,335.119 68.065,328.831 69.852 C 325.886 70.689,323.913 72.569,323.245 75.176 C 322.173 79.357,319.497 82.037,315.200 83.231 C 314.193 83.511,312.739 84.355,311.900 85.147 L 310.400 86.562 310.400 93.403 L 310.400 100.243 311.700 101.473 C 312.446 102.179,314.113 103.066,315.614 103.555 C 322.037 105.650,323.599 108.715,323.600 119.219 L 323.600 126.638 325.100 128.076 C 326.072 129.008,327.385 129.738,328.831 130.148 C 332.137 131.088,334.425 133.021,335.829 136.064 L 337.000 138.600 337.119 152.800 L 337.238 167.000 338.462 168.264 C 339.136 168.959,340.252 169.635,340.943 169.767 C 344.984 170.539,348.136 173.178,349.559 176.982 C 350.867 180.477,350.867 219.523,349.559 223.018 C 348.141 226.807,345.863 228.812,341.600 230.022 C 340.610 230.303,339.215 231.078,338.500 231.745 L 337.200 232.957 337.200 253.201 C 337.200 275.799,337.140 276.349,334.319 279.771 C 333.087 281.266,328.940 283.599,327.514 283.600 C 326.698 283.600,324.000 285.876,324.000 286.563 C 324.000 287.563,326.646 289.526,328.831 290.148 C 335.150 291.945,336.944 295.381,337.130 306.049 L 337.261 313.497 338.730 314.876 C 339.609 315.700,341.094 316.523,342.424 316.924 C 345.201 317.760,347.698 319.857,349.116 322.545 L 350.200 324.600 350.310 352.657 C 350.436 384.629,350.540 383.542,347.041 387.041 C 343.681 390.400,343.682 390.400,320.000 390.400 C 296.318 390.400,296.319 390.400,292.959 387.041 C 287.042 381.123,289.819 372.414,298.400 369.978 C 299.390 369.697,300.785 368.922,301.500 368.255 L 302.800 367.043 302.800 353.368 L 302.800 339.693 301.199 338.247 C 300.318 337.451,299.283 336.800,298.899 336.800 C 295.594 336.798,291.265 332.816,290.119 328.724 C 289.307 325.822,287.451 324.002,284.356 323.070 C 281.088 322.086,279.091 320.473,277.744 317.729 L 276.600 315.400 276.490 294.371 L 276.380 273.343 274.865 271.863 L 273.350 270.384 271.897 271.837 C 271.098 272.636,270.322 273.854,270.173 274.545 C 268.695 281.383,264.721 283.600,253.943 283.600 L 246.828 283.600 245.419 284.837 C 244.543 285.607,243.843 286.698,243.565 287.730 C 242.304 292.411,239.900 295.047,235.614 296.445 C 233.055 297.279,230.400 299.224,230.400 300.263 C 230.400 304.357,225.685 309.327,220.943 310.233 C 220.252 310.365,219.131 311.046,218.452 311.746 L 217.218 313.020 217.109 347.210 L 217.000 381.400 215.829 383.936 C 214.460 386.902,212.183 388.877,209.066 389.803 C 206.066 390.694,153.934 390.694,150.934 389.803 C 140.675 386.756,140.839 373.083,151.169 370.148 C 154.114 369.311,156.087 367.431,156.755 364.824 C 157.827 360.643,160.503 357.963,164.800 356.769 C 165.807 356.489,167.261 355.645,168.100 354.853 L 169.600 353.438 169.600 340.000 L 169.600 326.562 168.100 325.154 C 167.186 324.296,165.724 323.482,164.356 323.070 C 157.994 321.155,156.646 318.453,156.477 307.273 C 156.296 295.313,158.326 291.368,165.455 289.827 C 167.070 289.478,169.478 287.070,169.827 285.455 C 170.680 281.510,173.819 278.054,177.576 276.924 C 178.925 276.518,180.391 275.700,181.300 274.846 L 182.800 273.438 182.800 259.996 C 182.800 244.984,183.023 243.453,185.681 240.229 C 186.913 238.734,191.060 236.401,192.486 236.400 C 193.701 236.400,195.959 234.038,196.435 232.270 C 197.696 227.589,200.100 224.953,204.386 223.555 C 206.945 222.721,209.600 220.776,209.600 219.737 C 209.600 215.643,214.315 210.673,219.057 209.767 C 219.748 209.635,220.909 208.913,221.637 208.162 L 222.960 206.797 221.399 205.199 L 219.838 203.600 205.819 203.600 L 191.800 203.599 189.371 202.450 C 186.355 201.024,184.676 199.049,183.555 195.614 C 183.075 194.141,182.178 192.445,181.501 191.729 L 180.300 190.459 172.450 190.329 C 162.012 190.157,158.751 188.497,156.924 182.424 C 156.086 179.639,154.017 177.343,151.813 176.750 C 144.916 174.892,143.056 171.533,142.872 160.600 L 142.745 153.000 141.494 151.700 C 140.806 150.985,140.015 150.400,139.737 150.400 C 135.763 150.400,131.345 146.416,129.978 141.600 C 129.697 140.610,128.922 139.215,128.255 138.500 L 127.043 137.200 86.799 137.200 C 47.445 137.200,46.502 137.182,44.157 136.390 C 36.439 133.784,34.086 125.114,39.600 119.600 C 42.614 116.586,43.765 116.400,59.401 116.400 L 73.172 116.400 74.581 115.163 C 75.457 114.393,76.157 113.302,76.435 112.270 C 77.696 107.589,80.100 104.953,84.386 103.555 C 87.391 102.575,89.419 100.880,89.767 99.057 C 90.539 95.016,93.178 91.864,96.982 90.441 C 102.675 88.311,108.961 92.399,110.233 99.057 C 110.365 99.748,111.047 100.871,111.750 101.551 L 113.026 102.789 167.213 102.894 L 221.400 103.000 223.936 104.171 C 226.978 105.575,228.912 107.862,229.852 111.169 C 230.474 113.354,232.437 116.000,233.437 116.000 C 234.124 116.000,236.400 113.302,236.400 112.486 C 236.402 109.186,240.300 104.867,244.497 103.514 C 246.283 102.938,247.627 102.198,248.475 101.322 L 249.757 100.000 248.475 98.678 C 247.627 97.802,246.283 97.062,244.497 96.486 C 237.977 94.384,236.401 91.328,236.400 80.781 L 236.400 73.362 234.900 71.924 C 233.928 70.992,232.615 70.262,231.169 69.852 C 227.863 68.912,225.575 66.979,224.171 63.936 L 223.000 61.400 223.000 46.800 C 223.000 27.722,223.873 25.388,231.813 23.250 C 234.017 22.657,236.086 20.361,236.924 17.576 C 237.998 14.006,240.962 11.146,244.800 9.974 C 247.530 9.141,300.682 9.567,303.018 10.441 M191.859 151.875 L 190.384 153.350 191.873 154.875 L 193.362 156.400 206.600 156.400 L 219.838 156.400 221.399 154.801 L 222.960 153.203 221.601 151.801 L 220.243 150.400 206.788 150.400 L 193.333 150.400 191.859 151.875 " stroke="none" fill="#fcfcfc" fill-rule="evenodd"></path><path id="path1" d="M245.800 15.138 C 244.076 16.193,241.788 18.855,240.615 21.171 C 239.117 24.127,237.601 25.646,234.388 27.407 C 232.748 28.306,230.752 29.826,229.754 30.936 L 228.000 32.887 228.000 46.588 L 228.000 60.290 229.204 61.806 C 230.617 63.583,232.304 64.905,234.800 66.190 C 240.095 68.917,241.200 71.288,241.200 79.924 L 241.200 86.680 242.377 88.305 C 243.593 89.983,245.797 91.680,248.627 93.116 C 250.500 94.066,252.931 96.608,253.889 98.618 C 255.032 101.015,252.363 104.907,247.969 107.249 C 244.576 109.057,242.717 110.814,241.216 113.630 C 238.359 118.991,234.632 121.787,231.953 120.579 C 229.900 119.653,227.389 117.140,226.197 114.818 C 224.908 112.308,223.588 110.621,221.806 109.204 L 220.290 108.000 166.932 108.000 L 113.573 108.000 111.661 107.031 C 109.357 105.863,107.199 103.561,105.775 100.750 C 104.567 98.366,101.106 94.800,100.000 94.800 C 98.894 94.800,95.433 98.366,94.225 100.750 C 92.751 103.660,90.694 105.796,87.969 107.249 C 84.584 109.053,82.718 110.813,81.231 113.602 C 79.592 116.677,77.911 118.616,75.622 120.070 L 73.843 121.200 60.243 121.200 L 46.643 121.200 45.134 122.246 C 43.821 123.156,42.351 124.766,41.479 126.250 C 41.104 126.889,43.291 129.761,45.077 130.975 L 46.586 132.000 86.506 132.000 L 126.427 132.000 128.339 132.969 C 130.636 134.133,132.800 136.437,134.210 139.221 C 135.536 141.836,138.164 144.464,140.779 145.790 C 146.742 148.811,148.000 151.347,148.000 160.343 L 148.000 167.113 149.754 169.064 C 150.752 170.174,152.748 171.694,154.388 172.593 C 157.607 174.358,159.116 175.872,160.626 178.851 C 163.551 184.624,165.456 185.600,173.800 185.600 C 179.027 185.600,180.696 185.732,181.644 186.223 C 183.551 187.209,185.985 189.601,186.884 191.373 C 188.320 194.203,190.017 196.407,191.695 197.623 L 193.320 198.800 206.676 198.800 C 222.656 198.800,223.697 199.096,226.796 204.523 L 227.945 206.535 227.004 208.393 C 225.865 210.639,223.543 212.810,220.779 214.210 C 218.164 215.536,215.536 218.164,214.210 220.779 C 212.750 223.661,210.686 225.801,207.969 227.249 C 204.576 229.057,202.717 230.814,201.216 233.630 C 199.540 236.775,197.576 238.957,195.233 240.278 C 191.532 242.366,190.368 243.251,189.197 244.868 L 188.000 246.520 187.996 259.960 L 187.992 273.400 186.820 275.445 C 185.466 277.805,183.898 279.233,181.107 280.647 C 178.269 282.085,175.707 284.611,174.340 287.318 C 172.828 290.314,170.305 292.833,167.291 294.354 C 165.897 295.058,164.150 296.406,163.058 297.620 L 161.200 299.687 161.200 306.522 C 161.200 315.109,161.800 316.261,167.875 319.337 C 174.047 322.463,174.400 323.581,174.400 340.000 C 174.400 356.562,174.083 357.528,167.562 360.819 C 164.533 362.348,162.348 364.533,160.819 367.562 C 159.416 370.343,157.331 372.506,154.800 373.810 C 151.750 375.381,148.000 378.794,148.000 380.000 C 148.000 380.566,150.415 383.318,151.896 384.439 L 153.400 385.578 180.000 385.578 L 206.600 385.578 208.104 384.439 C 208.931 383.813,210.146 382.623,210.804 381.795 L 212.000 380.290 212.000 346.932 L 212.000 313.573 212.969 311.661 C 214.133 309.364,216.437 307.200,219.221 305.790 C 221.836 304.464,224.464 301.836,225.790 299.221 C 227.250 296.339,229.314 294.199,232.031 292.751 C 235.416 290.947,237.282 289.187,238.769 286.398 C 240.408 283.323,242.089 281.384,244.378 279.930 L 246.157 278.800 253.235 278.800 L 260.313 278.800 262.380 276.942 C 263.604 275.841,264.942 274.103,265.661 272.679 C 269.187 265.694,273.536 264.203,277.966 268.460 C 281.349 271.710,281.200 270.567,281.200 293.263 L 281.200 313.357 282.246 314.866 C 283.492 316.664,285.067 317.915,287.875 319.337 C 290.495 320.664,292.495 322.715,294.094 325.715 C 295.667 328.667,298.159 331.145,301.000 332.582 C 307.533 335.888,308.000 337.272,308.000 353.340 C 308.000 369.496,307.555 370.777,300.750 374.225 C 298.514 375.358,294.800 378.871,294.800 379.853 C 294.800 380.749,296.679 383.042,298.527 384.401 L 300.158 385.600 319.957 385.600 L 339.757 385.600 341.328 384.511 C 342.192 383.913,343.506 382.627,344.249 381.654 L 345.600 379.885 345.600 353.523 C 345.600 331.504,345.506 326.979,345.031 326.059 C 344.211 324.475,341.192 321.812,338.893 320.647 C 333.098 317.711,332.009 315.482,332.004 306.555 L 332.000 299.710 330.796 298.194 C 329.379 296.412,327.692 295.092,325.182 293.803 C 322.860 292.611,320.347 290.100,319.421 288.047 C 318.284 285.525,321.151 281.458,325.682 279.165 C 328.312 277.834,329.563 276.844,330.836 275.087 L 332.000 273.480 332.000 253.527 L 332.000 233.573 332.969 231.661 C 334.084 229.460,336.408 227.220,338.882 225.960 C 341.351 224.702,343.030 223.337,344.401 221.473 L 345.600 219.842 345.600 200.000 L 345.600 180.158 344.401 178.527 C 343.030 176.663,341.351 175.298,338.882 174.040 C 332.462 170.770,332.000 169.363,332.000 153.068 L 332.000 139.710 330.796 138.194 C 329.383 136.417,327.696 135.095,325.200 133.810 C 319.905 131.083,318.800 128.712,318.800 120.076 L 318.800 113.320 317.623 111.695 C 316.407 110.017,314.203 108.320,311.373 106.884 C 309.601 105.985,307.209 103.551,306.223 101.644 C 305.220 99.705,305.324 86.907,306.359 84.884 C 307.497 82.660,309.770 80.528,312.438 79.181 C 315.467 77.652,317.652 75.467,319.181 72.438 C 320.584 69.657,322.669 67.494,325.200 66.190 C 327.696 64.905,329.383 63.583,330.796 61.806 L 332.000 60.290 332.000 53.405 L 332.000 46.520 330.803 44.868 C 329.632 43.251,328.468 42.366,324.767 40.278 C 322.424 38.957,320.460 36.775,318.784 33.630 C 317.283 30.814,315.424 29.057,312.031 27.249 C 309.418 25.856,307.266 23.683,305.960 21.118 C 304.702 18.649,303.337 16.970,301.473 15.599 L 299.842 14.400 273.421 14.401 C 248.487 14.403,246.932 14.444,245.800 15.138 M221.644 146.223 C 223.632 147.251,226.003 149.633,227.004 151.607 L 227.945 153.465 226.796 155.477 C 223.694 160.909,222.666 161.200,206.600 161.200 C 191.507 161.200,191.614 161.218,188.582 158.103 C 184.565 153.977,185.212 150.452,190.647 146.852 L 192.537 145.600 206.488 145.600 C 218.333 145.600,220.622 145.694,221.644 146.223 " stroke="none" fill="#040404" fill-rule="evenodd"></path><path id="path2" d="" stroke="none" fill="#bc10080" fill-rule="evenodd"></path><path id="path3" d="" stroke="none" fill="#bc10080" fill-rule="evenodd"></path><path id="path4" d="" stroke="none" fill="#bc10080" fill-rule="evenodd"></path></g></svg>